<svg id="Calque_1" data-name="Calque 1" xmlns="http://www.w3.org/2000/svg" xmlns:xlink="http://www.w3.org/1999/xlink" viewBox="0 0 472.36 628.07"><defs><style>.cls-1{fill:none;}.cls-2{fill:#fff;stroke:#000;stroke-miterlimit:10;stroke-width:2px;}.cls-3{clip-path:url(#clip-path);}</style><clipPath id="clip-path" transform="translate(-113.64 -43.93)"><rect class="cls-1" x="407.24" y="672" width="700" height="700"/></clipPath><symbol id="c" data-name="c" viewBox="0 0 12.38 19.66"><path d="M7.33,19.66V15.31h5.05v-3.5H7.33V5.31a1.86,1.86,0,0,1,.42-1.43A2.57,2.57,0,0,1,9.42,3.5h2.52V0H7.75C5.81,0,4.44.4,3.62,1.2s-1.2,2.18-1.2,4.11v6.5H0v3.5H2.42v4.35Z"/></symbol></defs><path d="M348.32,272.72h3.36L445.76,45.36C437.36,47,395.36,55.44,350,55.44c-54.88,0-73.36-5.6-95.76-10.08Z" transform="translate(-113.64 -43.93)"/><path class="cls-2" d="M353.92,273.84c1.12.56,1.68,1.68,2.24,2.24L583.52,182c-8.4-3.92-50.4-24.08-81.2-54.88S451.92,55.44,448,46.48Z" transform="translate(-113.64 -43.93)"/><path d="M584.64,184.24,357.28,278.32v3.36l227.36,94.08c-2.8-8.4-14.56-47.6-13.44-101.92,1.12-52.64,10.64-82.32,13.44-89.6Z" transform="translate(-113.64 -43.93)"/><path d="M115.36,184.24c2.24,7.84,12.88,47,12.88,90.16,0,42.56-11.2,92.4-13.44,101.36l227.36-94.08v-3.36Z" transform="translate(-113.64 -43.93)"/><path class="cls-2" d="M343.28,276.08c.56-1.12,1.68-1.68,2.24-2.24L251.44,46.48c-4.48,7.28-29.12,45.92-51,71.12-28.56,32.48-75.6,59.36-84.56,64.4Z" transform="translate(-113.64 -43.93)"/><path class="cls-2" d="M356.16,284.48c-.56,1.12-1.68,1.68-2.24,2.24L448,514.08c4.48-7.28,27.44-44.8,62.16-79a388.66,388.66,0,0,1,73.36-56.56Z" transform="translate(-113.64 -43.93)"/><path d="M351.68,287.84h-3.36L253.68,515.2c9.52-1.68,59.92-11.2,99.12-11.76,38.64-.56,84,9.52,93,11.76Z" transform="translate(-113.64 -43.93)"/><path class="cls-2" d="M345.52,286.72c-1.12-.56-1.68-1.68-2.24-2.24L116.48,378c7.84,3.92,45.36,22.4,76.72,56,31.92,34.16,54.32,71.68,58.24,79.52Z" transform="translate(-113.64 -43.93)"/><g class="cls-3"><use width="12.38" height="19.66" transform="matrix(1, 0, 0, -1, 293.98, 628.07)" xlink:href="#c"/></g></svg>