<svg id="Calque_1" data-name="Calque 1" xmlns="http://www.w3.org/2000/svg" viewBox="0 0 472.4 472.35"><defs><style>.cls-1{fill:#fff;stroke:#000;stroke-miterlimit:10;stroke-width:2px;}</style></defs><path d="M234.72,228.79H238L332.16,1.43c-8.4,1.64-50.4,10.08-95.76,10.08-54.88,0-73.36-5.6-95.76-10.08Z" transform="translate(0 0)"/><path class="cls-1" d="M240.32,229.91c1.12.56,1.68,1.68,2.24,2.24l227.36-94.08c-8.4-3.92-50.4-24.08-81.2-54.88S338.32,11.51,334.4,2.55Z" transform="translate(0 0)"/><path d="M471,140.31,243.68,234.39v3.36L471,331.83c-2.8-8.4-14.56-47.6-13.44-101.92C458.72,177.27,468.24,147.59,471,140.31Z" transform="translate(0 0)"/><path d="M1.76,140.31c2.24,7.84,12.88,47,12.88,90.16,0,42.56-11.2,92.4-13.44,101.36l227.36-94.08v-3.36Z" transform="translate(0 0)"/><path class="cls-1" d="M229.68,232.15c.56-1.12,1.68-1.68,2.24-2.24L137.84,2.55c-4.48,7.28-29.12,45.92-51,71.12C58.28,106.15,11.24,133,2.28,138.07Z" transform="translate(0 0)"/><path class="cls-1" d="M242.56,240.55c-.56,1.12-1.68,1.68-2.24,2.24L334.4,470.15c4.48-7.28,27.44-44.8,62.16-79a388.6,388.6,0,0,1,73.36-56.56Z" transform="translate(0 0)"/><path d="M238,243.91h-3.36L140,471.27c9.52-1.68,59.92-11.2,99.12-11.76,38.64-.56,84,9.52,93,11.76Z" transform="translate(0 0)"/><path class="cls-1" d="M231.92,242.79c-1.12-.56-1.68-1.68-2.24-2.24L2.88,334.07c7.84,3.92,45.36,22.4,76.72,56,31.92,34.16,54.32,71.68,58.24,79.52Z" transform="translate(0 0)"/></svg>