<svg id="Layer_1" data-name="Layer 1" xmlns="http://www.w3.org/2000/svg" xmlns:xlink="http://www.w3.org/1999/xlink" viewBox="0 0 365 363.93"><defs><style>.cls-1{fill:url(#radial-gradient);}.cls-2{fill:#870200;}.cls-3{fill:url(#radial-gradient-2);}.cls-4{fill:#bdbdbd;}</style><radialGradient id="radial-gradient" cx="0" cy="0" r="1.23" gradientTransform="translate(249 250) scale(145)" gradientUnits="userSpaceOnUse"><stop offset="0" stop-color="#ba0d0a"/><stop offset="0.17" stop-color="#dc1e0a"/><stop offset="0.31" stop-color="#c70300"/><stop offset="0.49" stop-color="#a3201e"/><stop offset="0.73" stop-color="#a81310"/><stop offset="0.86" stop-color="#b90d0a"/><stop offset="1" stop-color="#aa0c0a"/></radialGradient><radialGradient id="radial-gradient-2" cx="0" cy="0" r="1.23" gradientTransform="translate(248.98 249.98) scale(142.15)" gradientUnits="userSpaceOnUse"><stop offset="0" stop-color="#a8a8a8"/><stop offset="0.14" stop-color="#cdcdcd"/><stop offset="0.27" stop-color="#d2d2d2"/><stop offset="0.51" stop-color="#fff"/><stop offset="0.69" stop-color="#ddd"/><stop offset="0.83" stop-color="#d8d8d8"/><stop offset="1" stop-color="#fff"/></radialGradient></defs><path class="cls-1" d="M236.89,250,70.75,181s17.38,34.63,17.38,69.14S70.75,319,70.75,319Zm191.29-69L262,250l166.14,69s-17.38-34.39-17.38-68.9S428.18,181,428.18,181ZM318.49,71.29s-34.64,17.37-69.15,17.37-68.89-17.37-68.89-17.37l69,166.14Zm-138,357.42s34.38-17.37,68.89-17.37,69.15,17.37,69.15,17.37l-69-166.14Z" transform="translate(-67.5 -68.03)"/><path class="cls-2" d="M236.89,250l.6-1.42L67.52,178l1.86,3.7,0,.09a184.38,184.38,0,0,1,9,22.56c4.18,12.72,8.21,29.34,8.21,45.8,0,17-4.29,34.09-8.61,46.9-2.15,6.41-4.31,11.75-5.93,15.48-.8,1.86-1.48,3.32-1.94,4.32-.24.5-.42.88-.55,1.13l-.14.28,0,.1L67.5,322l173.41-72-3.42-1.42-.6,1.42-.59-1.42-166.14,69,.59,1.42,1.38.7A183,183,0,0,0,80.9,298c4.38-13,8.77-30.36,8.77-47.88s-4.39-34.93-8.77-48a185,185,0,0,0-8.77-21.83l-1.38.69-.59,1.42,166.14,69,.59-1.42-.59-1.42Zm191.29-69-.59-1.42L258,250l173.41,72-1.88-3.71,0-.1a180,180,0,0,1-9-22.42c-4.18-12.67-8.21-29.22-8.21-45.69,0-17,4.3-34.15,8.61-47,2.16-6.44,4.31-11.81,5.93-15.56.81-1.88,1.48-3.35,1.95-4.35.23-.5.42-.88.54-1.14l.14-.29.05-.09,1.85-3.7-3.82,1.59.59,1.42-1.38-.69A185,185,0,0,0,418,202.12c-4.38,13.07-8.77,30.49-8.77,48S413.66,285,418,298a183,183,0,0,0,8.77,21.72l1.38-.7.59-1.42L266.05,250l162.72-67.6-.59-1.42-1.38-.69ZM318.49,71.29l-.69-1.38-.1,0a183,183,0,0,1-22.55,9c-12.73,4.17-29.34,8.21-45.81,8.2-17,0-34.09-4.29-46.9-8.6C196,76.36,190.7,74.2,187,72.59c-1.87-.81-3.33-1.48-4.32-2l-1.13-.54-.29-.14-.09,0L177.43,68l72,173.41,72-173.39-3.7,1.86.69,1.38-1.43-.59L249.47,233.41,181.87,70.7l-1.42.59-.7,1.37a181.21,181.21,0,0,0,21.71,8.78c13,4.37,30.37,8.76,47.88,8.77s34.93-4.4,48-8.77a182.66,182.66,0,0,0,21.83-8.78l-.69-1.37-1.43-.59Zm-138,357.42.69,1.38.09,0a183.16,183.16,0,0,1,22.43-9c12.66-4.17,29.22-8.21,45.68-8.2,17,0,34.15,4.29,47,8.61,6.43,2.15,11.8,4.31,15.56,5.92,1.87.81,3.35,1.48,4.35,1.95l1.14.54.28.15.1,0,3.7,1.86-72-173.39L177.43,432l3.71-1.88-.69-1.38,1.42.6,67.6-162.72,67.59,162.72,1.43-.6.69-1.37a182.66,182.66,0,0,0-21.83-8.78c-13.08-4.37-30.49-8.76-48-8.77s-34.87,4.4-47.88,8.77a181.21,181.21,0,0,0-21.71,8.78l.7,1.37,1.42.6Z" transform="translate(-67.5 -68.03)"/><path class="cls-3" d="M135.46,364.25c24.4,24.41,36.48,61,36.48,61L240.59,259,74.33,327.52S111.06,339.73,135.46,364.25ZM363.72,136c-24.4-24.4-36.61-61.13-36.61-61.13L258.46,241.13l166.27-68.65C424.61,172.48,388,160.4,363.72,136ZM171.94,74.86s-12.2,36.73-36.6,61.13-61,36.49-61,36.49l166.26,68.65ZM327,425.14s12.08-36.61,36.48-61,61.14-36.73,61.14-36.73L258.34,258.75Z" transform="translate(-67.5 -68.03)"/><path class="cls-4" d="M135.46,364.25l-1.09,1.09c12,12,21.08,27.15,27.1,39.26,3,6,5.27,11.35,6.77,15.13.75,1.89,1.31,3.4,1.69,4.43l.41,1.19c0,.13.08.23.11.3l0,.1,1.3,3.94,71.65-173.53L69.91,327.68,73.84,329l.1,0a182.27,182.27,0,0,1,22.26,9.63c11.94,6.06,26.52,15,38.17,26.69h0l1.09-1.09,1.09-1.08c-12.39-12.45-27.8-21.69-40.12-27.86a182.44,182.44,0,0,0-21.62-9.25l-.48,1.46.58,1.43,162.84-67.12L170.52,424.67l1.42.59,1.46-.48a178.93,178.93,0,0,0-9.17-21.56c-6.12-12.29-15.3-27.67-27.68-40.06h0ZM363.72,136l1.09-1.09c-12-12-21.11-27.17-27.17-39.31-3-6.07-5.3-11.39-6.81-15.18-.75-1.9-1.32-3.41-1.7-4.45-.18-.52-.32-.92-.42-1.19s-.08-.23-.1-.3l0-.1-1.31-3.93L255.62,244l176.88-73h-7.77v1.54L425,171a1.5,1.5,0,0,0-.27,0v1.54L425,171l-.25,1.38.39-1.35-.14,0-.25,1.38.39-1.35-.16.56.16-.56h0l-.16.56.16-.56-.54-.18a182.84,182.84,0,0,1-23.41-10.22c-11.58-6-25.32-14.57-36.38-25.68h0L363.72,136l-1.09,1.09c12.32,12.38,27.67,21.57,40,27.68,6.14,3.06,11.53,5.35,15.39,6.88,1.93.76,3.48,1.34,4.56,1.72l1.25.43.34.12.11,0,.06,0,.07,0h.08a1.36,1.36,0,0,0,.27,0v-1.54l-.59-1.43L261.3,238.29,328.54,75.45l-1.43-.59-1.46.49A183.59,183.59,0,0,0,334.89,97c6.15,12.33,15.36,27.74,27.74,40.12h0ZM171.94,74.86l-1.46-.49,0,.1a186.12,186.12,0,0,1-9.62,22.26c-6,11.94-14.94,26.53-26.58,38.17C122.23,146.93,107.1,156,95,162c-6,3-11.35,5.26-15.13,6.76-1.89.75-3.4,1.32-4.44,1.69l-1.18.42-.3.1-.1,0-3.94,1.3L243.43,244,171.78,70.44l-1.3,3.93,1.46.49-1.42.59,67.23,162.84L74.91,171.05l-.58,1.43.48,1.46a182.23,182.23,0,0,0,21.56-9.18c12.29-6.11,27.67-15.3,40-27.68S158,109.29,164.17,97a182.31,182.31,0,0,0,9.23-21.61l-1.46-.49-1.42.59ZM327,425.14l1.46.48,0-.09a180,180,0,0,1,9.54-22.2c6-11.91,14.89-26.47,26.53-38.11,12-12,27.18-21.14,39.32-27.23,6.07-3,11.39-5.33,15.18-6.85,1.9-.76,3.41-1.33,4.45-1.71l1.19-.43.3-.1.1,0,3.9-1.31L255.5,255.91l71.65,173.66,1.3-3.95-1.46-.48,1.42-.59-67.23-163L424,328.83l.59-1.43-.49-1.46a184.65,184.65,0,0,0-21.62,9.3c-12.32,6.18-27.73,15.42-40.12,27.8s-21.56,27.77-27.68,40.06a180.16,180.16,0,0,0-9.17,21.56l1.46.48,1.42-.59Z" transform="translate(-67.5 -68.03)"/></svg>